<svg width="15" height="15" viewBox="0 0 15 15" fill="none" xmlns="http://www.w3.org/2000/svg">
<g clip-path="url(#clip0_2074_12812)">
<path d="M11.5 0.625C12.3975 0.625 13.125 1.35254 13.125 2.25V6.40625C13.125 6.75143 12.8452 7.03125 12.5 7.03125C12.1548 7.03125 11.875 6.75143 11.875 6.40625V2.25C11.875 2.04289 11.7071 1.875 11.5 1.875H6.625C6.41789 1.875 6.25 2.04289 6.25 2.25V2.8125H8.375C9.27246 2.8125 10 3.54004 10 4.4375V10.9375H11.5C11.7071 10.9375 11.875 10.7696 11.875 10.5625V8.98438C11.875 8.6392 12.1548 8.35938 12.5 8.35938C12.8452 8.35938 13.125 8.6392 13.125 8.98438V10.5625C13.125 11.46 12.3975 12.1875 11.5 12.1875H10V12.75C10 13.6475 9.27246 14.375 8.375 14.375H3.5C2.60254 14.375 1.875 13.6475 1.875 12.75V8.59375C1.875 8.24857 2.15482 7.96875 2.5 7.96875C2.84518 7.96875 3.125 8.24857 3.125 8.59375V12.75C3.125 12.9571 3.29289 13.125 3.5 13.125H8.375C8.58211 13.125 8.75 12.9571 8.75 12.75V4.4375C8.75 4.23039 8.58211 4.0625 8.375 4.0625H3.5C3.29289 4.0625 3.125 4.23039 3.125 4.4375V6.01562C3.125 6.3608 2.84518 6.64062 2.5 6.64062C2.15482 6.64062 1.875 6.3608 1.875 6.01562V4.4375C1.875 3.54004 2.60254 2.8125 3.5 2.8125H5V2.25C5 1.35254 5.72754 0.625 6.625 0.625H11.5Z" fill="#332A2A"/>
</g>
<defs>
<clipPath id="clip0_2074_12812">
<rect width="15" height="15" fill="white"/>
</clipPath>
</defs>
</svg>
