<svg width="581" height="100" viewBox="0 0 581 100" fill="none" xmlns="http://www.w3.org/2000/svg">
<g clip-path="url(#clip0_10_900)">
<path d="M20.97 23.67H16.98C15.86 23.67 15.68 24.19 15.68 25.06V44.27H36.06V35.45C36.06 29.52 36.05 29.58 36.05 27.18C36.05 25.3 34.97 25.22 33.52 25.22H30.86V22.36H51.39V25.22H47.4C46.28 25.22 46.1 25.74 46.1 26.61V46.04C50.71 42.08 53.88 39.82 58.82 39.82C62.97 39.82 66.39 41.77 67.36 46C71.51 42.42 75.33 39.82 79.97 39.82C86.4 39.82 89.81 43.64 89.81 51.04V62.02C89.81 71.46 90.13 73.14 92.41 73.14H94.33V7.3C94.33 3.46 90.88 0 86.61 0H7.71C3.46 0 0 3.45 0 7.71V20.81H20.97V23.66V23.67Z" fill="#B32017"/>
<path d="M5.65 71.5199V35.4399C5.65 29.5099 5.64 28.0299 5.64 25.6299C5.64 23.7499 4.56 23.6699 3.11 23.6699H0V72.8999H4.14C5.26 72.8999 5.64 72.3799 5.64 71.5199" fill="#B32017"/>
<path d="M77.37 73.14H79.81C80.7 73.14 81.27 73.06 81.27 71.84V55.1C81.27 50.83 81.21 45.47 75.25 46.17C72.98 46.43 70.07 48.72 67.93 50.78V62.02C67.93 71.46 68.25 73.15 70.53 73.15H72.89V75.77H55.48V73.14H57.92C58.81 73.14 59.38 73.06 59.38 71.84V55.11C59.38 50.69 59.3 45.5 53.36 46.18C50.98 46.45 48.23 48.78 46.09 50.75V61.15C46.09 67.1 46.05 69.96 46.05 71.5C46.05 73.04 47.16 72.91 48.49 72.91H51.34V75.77H30.86V72.91H34.55C35.68 72.91 36.05 72.39 36.05 71.53V47.65H15.68V61.15C15.68 67.1 15.64 69.96 15.64 71.5C15.64 73.04 16.75 72.91 18.08 72.91H20.93V75.77H0V91.9C0 96.16 3.46 99.61 7.71 99.61H86.62C90.88 99.61 94.34 96.16 94.34 91.48V75.76H77.37V73.14Z" fill="#B32017"/>
<path d="M191.63 39.2551C203.22 39.2552 209.98 46.6155 209.98 58.1155C209.98 69.9653 201.24 78.885 189.64 78.885C178.04 78.8849 171.3 71.5346 171.3 60.0247C171.3 48.5149 180.04 39.2551 191.63 39.2551ZM298.52 39.2551C306.74 39.2551 311.24 44.7952 314.44 51.7151L289.86 58.2053C290.29 66.3353 293.32 74.2952 302.76 74.2952C306.91 74.2952 310.29 72.8247 313.49 70.3147L314.79 72.3049C310.2 76.5448 304.15 78.8849 297.91 78.885C286.4 78.885 280.43 70.4949 280.43 59.7649C280.43 49.0351 286.92 39.2553 298.52 39.2551ZM489.4 39.2551C497.62 39.2551 502.12 44.7952 505.32 51.7151L480.74 58.2053C481.171 66.3352 484.2 74.2952 493.63 74.2952C497.78 74.2951 501.16 72.8246 504.36 70.3147L505.66 72.3049C501.07 76.5449 495.01 78.8849 488.79 78.885C477.28 78.885 471.31 70.4949 471.31 59.7649C471.31 49.0351 477.8 39.2554 489.4 39.2551ZM556.31 39.2551C559.77 39.2551 563.49 39.7754 566.61 41.2454L567.22 47.3049L567.215 47.4075C567.164 47.9573 566.742 48.3352 566.18 48.3352C565.4 48.3352 565.14 47.7352 564.88 47.1252C563.41 43.7553 558.82 42.6253 555.54 42.6252C552.26 42.6252 547.66 44.0954 547.66 48.0754C547.661 56.2049 569.99 51.7954 569.99 65.6448C569.99 75.4248 559.34 78.885 551.3 78.885C547.66 78.885 543.86 78.3655 540.39 77.1555L539.18 70.4055C539.01 69.2856 539.44 68.5053 540.48 68.5051C541.52 68.5051 541.69 69.1954 542.04 70.3254C543.081 74.0452 548.44 75.5149 552.25 75.5149C556.32 75.5148 562.2 73.9547 562.2 68.9348C562.2 60.3653 539.871 65.2949 539.87 51.3655C539.87 44.8755 546.36 39.2552 556.31 39.2551ZM407.29 39.2454C416.9 39.2454 417.76 41.9249 417.76 51.3547V64.6848C417.76 71.4346 418.8 72.9049 423.82 73.7649L420.45 78.8752C418.2 78.8752 412.06 78.6144 409.37 71.7844C405.82 74.6344 400.37 78.8752 395.53 78.8752C390.69 78.875 387.39 75.3246 387.39 70.3948C387.39 62.0049 397.95 58.4547 404.27 55.8547L408.67 54.0383V51.5344C408.67 46.0848 408.5 42.7953 402.79 42.7952C400.8 42.7952 398.55 43.3948 396.91 44.5247C396.91 49.2847 394.83 53.175 391.03 53.175C389.48 53.1748 388 52.0544 388 50.4045C388.001 43.5747 399.59 39.2454 407.29 39.2454ZM533.99 39.2551C535.55 39.2552 537.1 39.9455 538.23 41.0754L537.19 46.7053C536.93 48.3451 536.76 48.9553 535.89 48.9553C534.16 48.9551 535.28 46.0053 530.781 46.0051C527.491 46.0051 524.98 47.9953 522.73 50.1653V62.885C522.73 72.925 523.08 74.9153 525.5 74.9153H530V77.5149H508.97V74.9153H512.09C513.04 74.9153 513.64 74.8246 513.64 73.5247V55.8752C513.64 47.1356 513.64 43.3258 510.7 43.3254H507.071V40.7249C512.26 40.2949 517.54 39.9451 522.73 39.2551V47.0452H522.74C527.07 42.4553 529.661 39.2551 533.99 39.2551ZM262.531 39.2454C269.36 39.2456 273 43.315 273 51.1848V62.8645C273 72.9041 273.35 74.8946 275.77 74.8948H279.06V77.4954H259.76V74.8948H262.35C263.31 74.8948 263.91 74.8049 263.91 73.5051V55.5051C263.91 49.6251 263.91 44.6848 257.51 44.6848C254.39 44.6848 252.14 46.6753 249.72 48.6653V62.8547C249.72 72.8947 250.07 74.885 252.49 74.885H255V77.4846H236.48V74.885H239.08C240.03 74.885 240.64 74.7948 240.64 73.4954V55.4954C240.64 49.6155 240.64 44.6753 234.24 44.675C231.121 44.675 228.87 46.6646 226.45 48.6545V62.845C226.45 72.8848 226.79 74.8752 229.22 74.8752H231.73V77.4749H212.69L212.68 77.5051V74.9045H215.8C216.75 74.9045 217.36 74.8149 217.36 73.5149V55.8645C217.36 47.1249 217.36 43.3148 214.42 43.3147H210.79V40.7151C215.98 40.2851 221.261 39.9354 226.45 39.2454V45.9045C231.38 41.6648 234.761 39.2454 240.031 39.2454C244.44 39.2455 248.08 41.3248 249.12 45.8245C253.53 42.0146 257.601 39.2454 262.531 39.2454ZM367.92 39.2454C374.76 39.2454 378.39 43.3149 378.39 51.1848V62.8645C378.39 72.9045 378.73 74.8948 381.16 74.8948H384.45V77.4954H365.16V74.8948H367.75C368.71 74.8948 369.31 74.8048 369.31 73.5051V55.5051C369.31 49.6252 369.31 44.685 362.91 44.6848C359.79 44.6848 357.54 46.6753 355.12 48.6653V62.8547C355.12 72.8945 355.47 74.8849 357.89 74.885H360.4V77.4846H341.88V74.885H344.48C345.43 74.885 346.03 74.7949 346.031 73.4954V55.4954C346.031 49.6154 346.03 44.6751 339.63 44.675C336.51 44.675 334.27 46.6646 331.84 48.6545V62.845C331.84 72.8843 332.19 74.875 334.61 74.8752H337.12V77.4749H318.09L318.08 77.5051V74.9045H321.19C322.14 74.9045 322.75 74.8149 322.75 73.5149V55.8645C322.75 47.1248 322.75 43.3147 319.81 43.3147H316.18V40.7151C321.37 40.2851 326.65 39.9354 331.84 39.2454V45.9045C336.77 41.6646 340.15 39.2454 345.42 39.2454C349.83 39.2454 353.47 41.3248 354.51 45.8245C358.92 42.0145 362.99 39.2454 367.92 39.2454ZM441.04 58.8049C449.35 53.0152 456.359 46.0854 456.36 44.0051C456.36 43.3152 455.49 43.2249 454.54 43.2249H450.3V40.6252H466.74V43.2249H465.531C463.451 43.2249 462.85 43.7452 461.38 45.1252L452.81 52.9153C460.16 66.3248 466.31 72.7347 467.35 73.595C468.48 74.545 469.17 74.8948 471.16 74.8948V77.4944H460.6C459.65 77.4944 459.04 77.495 458.52 76.885C453.76 71.9552 449.96 65.5451 446.321 58.4553L441.04 62.2649C441.04 72.9145 441.04 74.8946 443.81 74.8948H447.62V77.4944H427.281V74.8948H430.39C431.34 74.8948 431.95 74.8049 431.95 73.5051V41.1448C431.95 27.5548 431.17 25.2249 429.1 25.2249H425.46V22.6252C430.65 22.1052 435.84 21.5848 441.04 20.7249V58.8049ZM135.87 25.3948H131.88C130.75 25.3948 130.58 25.9254 130.58 26.7854V45.9954H154.96V37.175C154.96 31.2455 154.95 31.3051 154.95 28.9055C154.95 27.0256 153.88 26.9456 152.42 26.9456H149.76V24.0852H170.29V26.9456H166.3C165.17 26.9456 165 27.4652 165 28.3352V62.8655C165 68.8152 164.96 71.6151 164.96 73.2151C164.96 74.8149 166.07 74.6253 167.4 74.6252H170.25V77.4856H149.77V74.6252H153.46C154.58 74.6252 154.96 74.1152 154.96 73.2454V49.3655H130.58V62.8655C130.58 68.8152 130.54 71.6151 130.54 73.2151C130.54 74.8149 131.66 74.6253 132.98 74.6252H135.83V77.4856H115.35V74.6252H119.04C120.17 74.6252 120.54 74.1152 120.54 73.2454V27.3547C120.54 25.4752 119.46 25.3948 118 25.3948H115.34V22.5452H135.87V25.3948ZM189.3 42.1047C181.86 42.1047 180.74 50.2356 180.74 55.9456C180.741 62.7857 182.731 76.0149 191.99 76.0149L192.324 76.0188C199.455 75.7738 200.55 67.8954 200.55 62.2649C200.55 55.4248 198.56 42.1047 189.3 42.1047ZM407.12 57.7747C402.1 59.7647 396.48 63.0554 396.48 68.2454C396.48 70.8451 397.86 72.8352 400.63 72.8352C403.74 72.8352 406.6 70.8449 408.67 68.595V57.1653L407.12 57.7747ZM296.781 42.1047C291.241 42.1047 289.6 51.3648 289.77 55.5149L290.38 55.345L304.83 51.3655C303.54 47.9956 301.03 42.1052 296.781 42.1047ZM487.66 42.1047C482.121 42.1047 480.48 51.3648 480.65 55.5149L481.26 55.345L495.71 51.3655C494.41 47.9956 491.9 42.1051 487.66 42.1047ZM574.93 36.2756C577.92 36.2756 580.361 38.7053 580.361 41.7053C580.361 44.7052 577.92 47.135 574.93 47.135C571.94 47.1349 569.5 44.7052 569.5 41.7053C569.5 38.7054 571.93 36.2757 574.93 36.2756ZM574.93 37.4856C572.78 37.4857 571.071 39.2154 571.071 41.7053C571.071 44.1952 572.75 45.925 574.93 45.925C577.08 45.925 578.79 44.2152 578.79 41.7053C578.79 39.1953 577.08 37.4856 574.93 37.4856ZM575.02 38.6653C576.55 38.6653 577.42 39.1151 577.42 40.4651C577.42 41.565 576.76 41.9954 575.83 42.0754L577.42 44.6956H576.1L574.66 42.135H574.04V44.6956H572.75V38.6653H575.02ZM574.04 41.1448H575.09C575.71 41.1448 576.13 41.035 576.13 40.345C576.13 39.7252 575.47 39.6555 574.96 39.6555H574.04V41.1448Z" fill="#332A2A"/>
</g>
<defs>
<clipPath id="clip0_10_900">
<rect width="580.36" height="99.61" fill="white"/>
</clipPath>
</defs>
</svg>
