<svg width="95" height="100" viewBox="0 0 95 100" fill="none" xmlns="http://www.w3.org/2000/svg">
<g clip-path="url(#clip0_592_169)">
<rect width="94.34" height="99.61" rx="8" fill="#FFFEFC"/>
<path d="M20.97 23.67H16.98C15.86 23.67 15.68 24.19 15.68 25.06V44.27H36.06V35.45C36.06 29.52 36.05 29.58 36.05 27.18C36.05 25.3 34.97 25.22 33.52 25.22H30.86V22.36H51.39V25.22H47.4C46.28 25.22 46.1 25.74 46.1 26.61V46.04C50.71 42.08 53.88 39.82 58.82 39.82C62.97 39.82 66.39 41.77 67.36 46C71.51 42.42 75.33 39.82 79.97 39.82C86.4 39.82 89.81 43.64 89.81 51.04V62.02C89.81 71.46 90.13 73.14 92.41 73.14H94.33V7.3C94.33 3.46 90.88 0 86.61 0H7.71C3.46 0 0 3.45 0 7.71V20.81H20.97V23.66V23.67Z" fill="#B32017"/>
<path d="M5.65 71.5199V35.4399C5.65 29.5099 5.64 28.0299 5.64 25.6299C5.64 23.7499 4.56 23.6699 3.11 23.6699H0V72.8999H4.14C5.26 72.8999 5.64 72.3799 5.64 71.5199" fill="#B32017"/>
<path d="M77.37 73.14H79.81C80.7 73.14 81.27 73.06 81.27 71.84V55.1C81.27 50.83 81.21 45.47 75.25 46.17C72.98 46.43 70.07 48.72 67.93 50.78V62.02C67.93 71.46 68.25 73.15 70.53 73.15H72.89V75.77H55.48V73.14H57.92C58.81 73.14 59.38 73.06 59.38 71.84V55.11C59.38 50.69 59.3 45.5 53.36 46.18C50.98 46.45 48.23 48.78 46.09 50.75V61.15C46.09 67.1 46.05 69.96 46.05 71.5C46.05 73.04 47.16 72.91 48.49 72.91H51.34V75.77H30.86V72.91H34.55C35.68 72.91 36.05 72.39 36.05 71.53V47.65H15.68V61.15C15.68 67.1 15.64 69.96 15.64 71.5C15.64 73.04 16.75 72.91 18.08 72.91H20.93V75.77H0V91.9C0 96.16 3.46 99.61 7.71 99.61H86.62C90.88 99.61 94.34 96.16 94.34 91.48V75.76H77.37V73.14Z" fill="#B32017"/>
</g>
<defs>
<clipPath id="clip0_592_169">
<rect width="94.34" height="99.61" rx="8" fill="white"/>
</clipPath>
</defs>
</svg>
